<svg viewBox="0 0 233 233" xmlns="http://www.w3.org/2000/svg">
  <path
    fill-rule="evenodd"
    clip-rule="evenodd"
    d="M5.0329 150.479C19.5745 198.248 63.9789 233 116.501 233C180.841 233 233.001 180.84 233.001 116.5C233.001 52.159 180.841 0 116.501 0C54.7602 0 4.24122 48.029 0.251221 108.76C0.267903 108.788 0.284564 108.816 0.301201 108.844C0.301423 108.84 0.301599 108.837 0.301731 108.835L0.30201 108.83L62.901 134.6C64.604 133.48 66.419 132.51 68.356 131.72C72.75 129.91 77.384 129.1 82.002 129.31L110.51 87.898C110.5 87.714 110.5 87.518 110.5 87.322C110.5 62.882 130.35 43 154.75 43C179.16 43 199 62.882 199 87.322C199 111.76 179.16 131.66 154.75 131.66C154.42 131.66 154.08 131.65 153.75 131.64L112.96 160.79C113.08 165.29 112.25 169.8 110.47 174.1C103.63 190.55 84.671 198.38 68.228 191.51C58.178 187.32 51.366 178.61 49.144 168.68L5.0329 150.479ZM71.064 184.69C83.76 189.98 98.366 183.95 103.66 171.24C106.22 165.1 106.23 158.3 103.7 152.14C101.17 145.98 96.396 141.16 90.243 138.6C84.14 136.06 77.608 136.14 71.862 138.32L86.753 144.49C96.111 148.39 100.54 159.15 96.636 168.52C92.744 177.88 82.002 182.32 72.639 178.42L58.234 172.45C60.785 177.78 65.207 182.25 71.064 184.69ZM125.27 87.322C125.27 103.61 138.5 116.86 154.75 116.86C171.01 116.86 184.24 103.61 184.24 87.322C184.24 71.047 171.01 57.793 154.75 57.793C138.5 57.793 125.27 71.047 125.27 87.322ZM154.8 65.086C142.58 65.086 132.66 75.024 132.66 87.277C132.66 99.531 142.58 109.46 154.8 109.46C167.03 109.46 176.95 99.531 176.95 87.277C176.95 75.024 167.03 65.086 154.8 65.086Z"
    fill="currentColor"
  />
</svg>
